#!OML:ASF H:\LiuWeirdWalks\Patient Classification 1\Patient 1\Session 1\male.ASF
:FULLY-SPECIFIED
:DEGREES
1109
root 4.94801 18.094 34.7542 2.84344 2.0699 -1.40934
lowerback 6.97364 0.211775 -7.92279
upperback 1.5655 -0.215093 2.79542
thorax -2.24144 -0.0614828 7.43479
lowerneck -27.1253 0.40453 6.0208
upperneck 16.518 -0.259637 -6.47466
head 9.62953 -0.523359 -3.31811
rclavicle 1.0548e-014 -1.04362e-014
rhumerus -28.2793 -65.6311 -7.57815
rradius 13.9197
rwrist 28.846
rhand -23.3617 6.22656
rfingers 7.12502
rthumb 3.09376 -23.7307
lclavicle 1.0548e-014 -1.04362e-014
lhumerus -15.5368 35.6833 22.3333
lradius 26.3791
lwrist 27.0347
lhand -25.9769 -24.0036
lfingers 7.12502
lthumb 0.568038 5.97544
rfemur -14.3956 -2.05307 10.4223
rtibia 24.1913
rfoot -7.14112 -20.7448
rtoes -7.26239
lfemur -12.7504 2.51241 -18.0618
ltibia 25.2903
lfoot -9.51533 10.2741
ltoes -8.3781
1110
root 4.92745 18.0836 34.7785 2.90303 2.28723 -0.687527
lowerback 6.80565 0.175921 -8.43532
upperback 1.55367 -0.290101 2.65123
thorax -2.14281 -0.100875 7.58084
lowerneck -26.9994 0.380513 5.97484
upperneck 16.5196 -0.246572 -6.56726
head 9.61019 -0.53027 -3.3401
rclavicle 1.11816e-015 9.93923e-017
rhumerus -28.375 -65.6104 -8.02119
rradius 13.843
rwrist 28.88
rhand -23.393 6.21214
rfingers 7.12502
rthumb 3.06355 -23.7456
lclavicle 1.11816e-015 9.93923e-017
lhumerus -15.3239 35.7683 22.4451
lradius 26.2842
lwrist 27.3048
lhand -25.9634 -24.543
lfingers 7.12502
lthumb 0.581112 5.43592
rfemur -14.5822 -2.13857 9.73249
rtibia 24.419
rfoot -5.96773 -20.2184
rtoes -5.68288
lfemur -12.6386 2.54461 -18.7881
ltibia 25.1154
lfoot -9.54374 10.0369
ltoes -8.53411
1111
root 4.90427 18.0738 34.8037 2.93976 2.48261 -0.0627868
lowerback 6.64751 0.159487 -8.85663
upperback 1.53672 -0.331236 2.52992
thorax -2.06141 -0.12301 7.69557
lowerneck -26.8415 0.332442 5.89543
upperneck 16.5249 -0.257224 -6.63739
head 9.58511 -0.547157 -3.35174
rclavicle -1.56543e-015 1.03368e-014
rhumerus -28.3911 -65.3133 -8.57809
rradius 13.8325
rwrist 28.6387
rhand -23.4216 6.15522
rfingers 7.12502
rthumb 3.03598 -23.8029
lclavicle -1.56543e-015 1.03368e-014
lhumerus -15.06 35.8847 22.6103
lradius 26.1548
lwrist 27.462
lhand -25.9178 -25.0702
lfingers 7.12502
lthumb 0.625156 4.90866
rfemur -14.7131 -2.0713 9.15683
rtibia 24.6773
rfoot -5.03663 -19.9729
rtoes -4.06761
lfemur -12.4999 2.55815 -19.3903
ltibia 24.939
lfoot -9.55565 9.83127
ltoes -8.67693
1112
root 4.87347 18.0659 34.8317 2.84012 2.67734 0.131868
lowerback 6.5661 0.138384 -8.95097
upperback 1.56778 -0.357147 2.54691
thorax -1.97703 -0.141074 7.76917
lowerneck -26.7309 0.300625 5.83368
upperneck 16.5671 -0.253154 -6.71042
head 9.58206 -0.556801 -3.36665
rclavicle 3.95085e-015 1.15295e-014
rhumerus -28.4319 -65.1251 -9.08889
rradius 13.8036
rwrist 28.5644
rhand -23.4316 6.18534
rfingers 7.12502
rthumb 3.02626 -23.7729
lclavicle 3.95085e-015 1.15295e-014
lhumerus -14.8524 36.0079 22.7686
lradius 26.0806
lwrist 27.6183
lhand -25.8706 -25.5694
lfingers 7.12502
lthumb 0.670678 4.40932
rfemur -14.6258 -1.72561 9.08105
rtibia 24.9054
rfoot -4.42799 -20.2359
rtoes -2.72757
lfemur -12.2483 2.56842 -19.4786
ltibia 24.8113
lfoot -9.5936 9.63952
ltoes -8.80043
1113
root 4.84233 18.0585 34.8607 2.78036 2.8892 0.450596
lowerback 6.44183 0.104093 -9.17511
upperback 1.59025 -0.406181 2.53035
thorax -1.87183 -0.171146 7.88302
lowerneck -26.6522 0.27393 5.7691
upperneck 16.644 -0.24397 -6.77265
head 9.59702 -0.563222 -3.37779
rclavicle -2.01269e-015 -6.95746e-015
rhumerus -28.4776 -65.0734 -9.55373
rradius 13.7287
rwrist 28.524
rhand -23.5261 6.13348
rfingers 7.12502
rthumb 2.93503 -23.8261
lclavicle -2.01269e-015 -6.95746e-015
lhumerus -14.6803 36.0944 22.9365
lradius 26.0476
lwrist 27.7889
lhand -25.8829 -25.9424
lfingers 7.12502
lthumb 0.658887 4.03636
rfemur -14.5098 -1.45009 8.86228
rtibia 25.1201
rfoot -4.07482 -20.7188
rtoes -1.89655
lfemur -12.0543 2.51345 -19.7088
ltibia 24.726
lfoot -9.62993 9.49958
ltoes -8.90279
1114
root 4.81027 18.0522 34.8891 2.69807 3.11354 0.632944
lowerback 6.34517 0.0616713 -9.26103
upperback 1.61856 -0.458039 2.54785
thorax -1.77618 -0.20302 7.95394
lowerneck -26.6316 0.252221 5.70708
upperneck 16.767 -0.23209 -6.82634
head 9.63839 -0.567827 -3.38797
rclavicle -1.00386e-014 1.43125e-014
rhumerus -28.5986 -65.2072 -9.90363
rradius 13.613
rwrist 28.5896
rhand -23.6856 6.04428
rfingers 7.12502
rthumb 2.78104 -23.9173
lclavicle -1.00386e-014 1.43125e-014
lhumerus -14.5427 36.1348 23.1192
lradius 26.0595
lwrist 27.984
lhand -25.886 -26.3238
lfingers 7.12502
lthumb 0.655857 3.65493
rfemur -14.3261 -1.17623 8.79566
rtibia 25.3189
rfoot -3.9386 -21.3786
rtoes -1.61069
lfemur -11.8687 2.40263 -19.7839
ltibia 24.6857
lfoot -9.67198 9.41194
ltoes -8.97761
1115
root 4.77878 18.0466 34.9153 2.66075 3.34132 0.904214
lowerback 6.24193 0.002515 -9.44341
upperback 1.63629 -0.538298 2.54526
thorax -1.68083 -0.248576 8.06099
lowerneck -26.6439 0.267594 5.69904
upperneck 16.8898 -0.182697 -6.91745
head 9.68795 -0.556526 -3.41527
rclavicle -9.0447e-015 -1.33186e-014
rhumerus -28.7863 -65.6324 -10.1254
rradius 13.4338
rwrist 28.8976
rhand -23.8906 5.97958
rfingers 7.12502
rthumb 2.583 -23.9845
lclavicle -9.0447e-015 -1.33186e-014
lhumerus -14.5054 36.106 23.2857
lradius 26.162
lwrist 28.2881
lhand -25.9056 -26.6772
lfingers 7.12502
lthumb 0.636935 3.30159
rfemur -14.192 -1.00083 8.61981
rtibia 25.547
rfoot -3.92925 -21.9991
rtoes -1.59043
lfemur -11.7408 2.22625 -19.9668
ltibia 24.6557
lfoot -9.69222 9.39045
ltoes -9.0269
1116
root 4.74757 18.0421 34.9389 2.64278 3.57638 1.16513
lowerback 6.17123 -0.0568661 -9.59763
upperback 1.61817 -0.621039 2.54168
thorax -1.64079 -0.291102 8.15147
lowerneck -26.5935 0.284617 5.70394
upperneck 16.9938 -0.13041 -7.02118
head 9.72048 -0.543831 -3.44738
rclavicle -1.73937e-015 -1.90833e-014
rhumerus -28.434 -65.3078 -10.9738
rradius 13.3259
rwrist 28.4169
rhand -24.1407 5.91417
rfingers 7.12502
rthumb 2.34151 -24.0527
lclavicle -1.73937e-015 -1.90833e-014
lhumerus -14.5132 35.9537 23.4731
lradius 26.3027
lwrist 28.7018
lhand -25.9166 -27.0726
lfingers 7.12502
lthumb 0.626317 2.90622
rfemur -14.0845 -0.910066 8.44629
rtibia 25.7652
rfoot -3.96682 -22.4622
rtoes -1.71053
lfemur -11.6587 2.00345 -20.1446
ltibia 24.6536
lfoot -9.70673 9.42005
ltoes -9.06451
1117
root 4.71569 18.0396 34.9589 2.62895 3.78999 1.31839
lowerback 6.14433 -0.107582 -9.64196
upperback 1.58702 -0.689317 2.56741
thorax -1.64299 -0.323787 8.20967
lowerneck -26.5556 0.303724 5.70817
upperneck 17.0946 -0.0752226 -7.12632
head 9.75431 -0.530244 -3.47962
rclavicle 1.05356e-014 8.74653e-015
rhumerus -28.1951 -65.0358 -11.7046
rradius 13.2502
rwrist 28.0935
rhand -24.3125 5.95127
rfingers 7.12502
rthumb 2.17559 -24.0174
lclavicle 1.05356e-014 8.74653e-015
lhumerus -14.5404 35.7649 23.6886
lradius 26.4576
lwrist 29.1902
lhand -25.9224 -27.5184
lfingers 7.12502
lthumb 0.620678 2.46044
rfemur -14.0151 -0.79609 8.38826
rtibia 25.9615
rfoot -4.02231 -22.7933
rtoes -1.76146
lfemur -11.6129 1.75097 -20.2034
ltibia 24.6726
lfoot -9.70955 9.51089
ltoes -9.08402
1118
root 4.68479 18.038 34.9796 2.59232 4.01945 1.40209
lowerback 6.13339 -0.167964 -9.60028
upperback 1.56397 -0.765965 2.61262
thorax -1.64478 -0.361235 8.23979
lowerneck -26.5285 0.333237 5.71969
upperneck 17.2025 -0.00657809 -7.23977
head 9.79367 -0.51115 -3.51442
rclavicle 2.44505e-014 -2.38542e-015
rhumerus -28.1041 -64.8559 -12.2791
rradius 13.2064
rwrist 28.0369
rhand -24.3726 6.16871
rfingers 7.12502
rthumb 2.11755 -23.8005
lclavicle 2.44505e-014 -2.38542e-015
lhumerus -14.6028 35.5436 23.9231
lradius 26.6371
lwrist 29.7853
lhand -25.9379 -27.9659
lfingers 7.12502
lthumb 0.605685 2.01298
rfemur -13.903 -0.765029 8.39515
rtibia 26.094
rfoot -4.10358 -22.9834
rtoes -1.79894
lfemur -11.559 1.48004 -20.1928
ltibia 24.7293
lfoot -9.74209 9.62773
ltoes -9.11461
1119
root 4.6538 18.0368 35.0023 2.48589 4.22902 1.32449
lowerback 6.1534 -0.197306 -9.35009
upperback 1.553 -0.790101 2.68432
thorax -1.66555 -0.372353 8.17435
lowerneck -26.4924 0.324691 5.68753
upperneck 17.3286 0.0210431 -7.32426
head 9.83493 -0.510373 -3.53829
rclavicle 1.36167e-014 2.22639e-014
rhumerus -28.2501 -64.6004 -12.6492
rradius 13.2628
rwrist 27.9995
rhand -24.3304 6.39188
rfingers 7.12502
rthumb 2.15828 -23.5769
lclavicle 1.36167e-014 2.22639e-014
lhumerus -14.5778 35.3345 24.2387
lradius 26.7488
lwrist 30.2491
lhand -25.9239 -28.386
lfingers 7.12502
lthumb 0.619265 1.59289
rfemur -13.7101 -0.719883 8.57939
rtibia 26.1728
rfoot -4.20326 -23.1278
rtoes -1.84588
lfemur -11.4333 1.21244 -20.0029
ltibia 24.8025
lfoot -9.8041 9.77946
ltoes -9.15414
1120
root 4.62205 18.0354 35.0285 2.2739 4.42573 1.04903
lowerback 6.21614 -0.213403 -8.89843
upperback 1.57801 -0.785243 2.80877
thorax -1.68111 -0.371241 8.04727
lowerneck -26.4889 0.307376 5.63927
upperneck 17.4748 0.0405086 -7.4014
head 9.88849 -0.514122 -3.55927
rclavicle 1.3418e-015 -5.56597e-015
rhumerus -28.7553 -64.6464 -12.6158
rradius 13.3376
rwrist 28.431
rhand -24.1722 6.71639
rfingers 7.12502
rthumb 2.31106 -23.2508
lclavicle 1.3418e-015 -5.56597e-015
lhumerus -14.5466 35.1389 24.5887
lradius 26.8369
lwrist 30.6121
lhand -25.8949 -28.7602
lfingers 7.12502
lthumb 0.647294 1.21852
rfemur -13.3843 -0.644036 8.98839
rtibia 26.203
rfoot -4.32968 -23.2896
rtoes -1.84648
lfemur -11.1878 0.957639 -19.589
ltibia 24.8768
lfoot -9.90091 9.94509
ltoes -9.22003
1121
root 4.59156 18.0333 35.0578 2.05875 4.63103 0.909241
lowerback 6.25371 -0.230581 -8.57246
upperback 1.61271 -0.787743 2.89684
thorax -1.66934 -0.375241 7.95359
lowerneck -26.5 0.290718 5.59297
upperneck 17.6063 0.061529 -7.48898
head 9.93955 -0.518665 -3.58403
rclavicle 1.2921e-015 3.1408e-014
rhumerus -29.5228 -65.0388 -12.2434
rradius 13.3809
rwrist 29.1639
rhand -24.0296 6.94634
rfingers 7.12502
rthumb 2.44879 -23.0194
lclavicle 1.2921e-015 3.1408e-014
lhumerus -14.5444 34.9541 24.9472
lradius 26.9119
lwrist 30.8688
lhand -25.8578 -29.0578
lfingers 7.12502
lthumb 0.683065 0.920833
rfemur -13.0119 -0.703207 9.23803
rtibia 26.2014
rfoot -4.45724 -23.3472
rtoes -1.85414
lfemur -10.9058 0.690286 -19.3343
ltibia 24.9341
lfoot -10.006 10.1136
ltoes -9.31188
1122
root 4.56104 18.0311 35.089 1.81508 4.83792 0.779834
lowerback 6.30262 -0.251876 -8.27953
upperback 1.65066 -0.798378 2.99178
thorax -1.65828 -0.383239 7.88717
lowerneck -26.4947 0.285005 5.5696
upperneck 17.7047 0.0947262 -7.60319
head 9.97702 -0.519172 -3.61923
rclavicle 3.23025e-015 1.86858e-014
rhumerus -30.2057 -65.409 -11.9087
rradius 13.3889
rwrist 29.7911
rhand -23.9522 7.08147
rfingers 7.12502
rthumb 2.52349 -22.8833
lclavicle 3.23025e-015 1.86858e-014
lhumerus -14.6164 34.7336 25.29
lradius 27.0062
lwrist 31.1041
lhand -25.8134 -29.3147
lfingers 7.12502
lthumb 0.725979 0.663771
rfemur -12.5824 -0.820909 9.47775
rtibia 26.1771
rfoot -4.60121 -23.3617
rtoes -1.86237
lfemur -10.5724 0.422892 -19.0905
ltibia 24.9672
lfoot -10.1076 10.269
ltoes -9.41744
1123
root 4.53063 18.0294 35.1221 1.56064 5.04675 0.6716
lowerback 6.34855 -0.275253 -8.02597
upperback 1.68717 -0.813875 3.08938
thorax -1.64545 -0.393541 7.84668
lowerneck -26.4673 0.285922 5.55887
upperneck 17.772 0.136036 -7.73426
head 10.0003 -0.516879 -3.6602
rclavicle -5.51627e-015 -2.62396e-014
rhumerus -30.9001 -65.8093 -11.5118
rradius 13.3702
rwrist 30.415
rhand -23.9032 7.1548
rfingers 7.12502
rthumb 2.57081 -22.8095
lclavicle -5.51627e-015 -2.62396e-014
lhumerus -14.7204 34.5381 25.6331
lradius 27.0799
lwrist 31.3116
lhand -25.7776 -29.5597
lfingers 7.12502
lthumb 0.760584 0.418731
rfemur -12.1269 -1.00949 9.69484
rtibia 26.1551
rfoot -4.76933 -23.3199
rtoes -1.89074
lfemur -10.1959 0.168837 -18.8694
ltibia 24.9526
lfoot -10.1917 10.3913
ltoes -9.53458
